<?xml version="1.0" encoding="utf-8"?>
<!-- Generator: Adobe Illustrator 15.1.0, SVG Export Plug-In  -->
<!DOCTYPE svg PUBLIC "-//W3C//DTD SVG 1.1//EN" "http://www.w3.org/Graphics/SVG/1.1/DTD/svg11.dtd" [
        <!ENTITY ns_flows "http://ns.adobe.com/Flows/1.0/">
        ]>
<svg version="1.1"
     xmlns="http://www.w3.org/2000/svg"
     x="0px" y="0px" width="151px" height="153px" viewBox="-16.48 -20.142 151 153"
     overflow="visible" enable-background="new -16.48 -20.142 151 153" xml:space="preserve">
	<style>
        @media (prefers-color-scheme: dark) {
            path {
                fill: #b4cbb4;
            }
        }
    </style>
    <defs>
</defs>
    <path fill="#4B344B" stroke="#4B344B" d="M41.982,32.282c0,23.701,0,47.401,0,71.103c0,1.142,3.322,2.474,3.322,1.237
	c0-23.701,0-47.402,0-71.103C45.304,32.378,41.982,31.045,41.982,32.282L41.982,32.282z"/>
    <path fill="#4B344B" stroke="#4B344B" d="M52.225,32.401c0,23.702,0,47.402,0,71.104c0,1.379,3.419,2.565,3.419,0.997
	c0-23.701,0-47.401,0-71.103C55.644,32.02,52.225,30.834,52.225,32.401L52.225,32.401z"/>
    <path fill="#4B344B" stroke="#4B344B" d="M62.443,32.519c0,23.701,0,47.401,0,71.102c0,1.176,3.566,1.654,3.566,0.766
	c0-23.7,0-47.401,0-71.103C66.009,32.108,62.443,31.63,62.443,32.519L62.443,32.519z"/>
    <path fill="#4B344B" stroke="#4B344B" d="M72.749,32.451c0,23.702,0,47.402,0,71.103c0,0.658,3.536,1.012,3.536,0.898
	c0-23.701,0-47.402,0-71.103C76.285,32.692,72.749,32.339,72.749,32.451L72.749,32.451z"/>
    <path fill="#4B344B" stroke="#4B344B" d="M27.312,85.796c-7.589,2.308-13.498,6.582-13.521,15.043
	c-0.008,3.073,0.278,5.616,2.174,8.204c2.615,3.57,7.378,5.634,11.287,7.386c11.38,5.096,24.602,6.244,36.92,5.766
	c12.106-0.472,24.719-3.306,35.236-9.479c0.551-0.323-0.51-3.349,0-3.648c-18.227,10.699-42.16,11.807-62.336,6.984
	c-7.497-1.791-17.809-5.138-22.1-12.135c-4.422-7.212,7.119-12.886,12.34-14.474C27.676,89.333,26.999,85.891,27.312,85.796
	L27.312,85.796z"/>
    <path fill="#4B344B" stroke="#4B344B" d="M0.979,25.5C16.545,17.665,32.111,9.824,47.677,1.986c1.766-0.889,4.182-1.09,6.119-1.237
	c0.412-0.032,3.379-0.184,1.759,0.635C39.991,9.221,24.424,17.059,8.858,24.897c-1.766,0.89-4.182,1.09-6.118,1.237
	C2.328,26.166-0.64,26.317,0.979,25.5L0.979,25.5z"/>
    <path fill="#4B344B" stroke="#4B344B" d="M114.223,29.235c-14.94-8.976-29.88-17.947-44.82-26.922
	c-1.696-1.017-4.09-1.397-6.011-1.689c-0.408-0.062-3.356-0.432-1.803,0.502c14.941,8.973,29.88,17.946,44.821,26.921
	c1.695,1.018,4.09,1.396,6.01,1.69C112.829,29.799,115.777,30.17,114.223,29.235L114.223,29.235z"/>
    <path fill="#4B344B" stroke="#4B344B" d="M106.34,39.21C93.501,27.425,80.663,15.639,67.826,3.85
	c-1.458-1.333-3.728-2.187-5.55-2.857c-0.388-0.144-3.202-1.098-1.867,0.128c12.839,11.787,25.677,23.576,38.515,35.36
	c1.458,1.336,3.727,2.188,5.55,2.861C104.861,39.482,107.675,40.437,106.34,39.21L106.34,39.21z"/>
    <path fill="#4B344B" stroke="#4B344B" d="M9.62,38.225C22.769,26.787,35.919,15.349,49.067,3.908
	c1.493-1.295,3.785-2.085,5.625-2.708c0.391-0.133,3.229-1.011,1.862,0.179c-13.15,11.439-26.299,22.88-39.448,34.316
	c-1.492,1.296-3.784,2.087-5.624,2.711C11.091,38.536,8.253,39.415,9.62,38.225L9.62,38.225z"/>
</svg>
